# xmcd
#
# Track frame offsets:
# 150
# 24300
# 44351
# 67012
# 86689
# 101909
# 118159
# 139746
# 154230
# 173920
# 194532
#
# Disc length: 2813 seconds
#
#
# Revision: 0
# Processed by: cddbd v1.5.2PL0 Copyright (c) Steve Scherf et al.
# Submitted via: FreeRIP 2.951 
#
DISCID=9d0afb0b
DTITLE=Jon Augustine - Carry Me Home
DYEAR=2006
DGENRE=Gospel
TTITLE0=What a Fellowship
TTITLE1=Sweet September
TTITLE2=Carry Me Home
TTITLE3=Glory Hallelujah
TTITLE4=I Love to Praise Him
TTITLE5=I Want Jesus to Walk With Me
TTITLE6=A Hammer and a Nail
TTITLE7=Do You Ever Wonder?
TTITLE8=Here Am I
TTITLE9=Encourage My Soul
TTITLE10=Sunday's Coming
EXTD=
EXTT0=
EXTT1=
EXTT2=
EXTT3=
EXTT4=
EXTT5=
EXTT6=
EXTT7=
EXTT8=
EXTT9=
EXTT10=
PLAYORDER=
